# xmcd
#
# Track frame offsets:
#	150
#	23872
#	45229
#	61458
#	81033
#	98146
#	116296
#	134240
#	149803
#	170616
#	194148
#	205586
#
# Disc length: 3005 seconds
#
# Revision: 1
# Processed by: cddbd v1.5.2PL0 Copyright (c) Steve Scherf et al.
# Submitted via: audiograbber 1.83.01
#
DISCID=b00bbb0c
DTITLE=Dennis Schütze - B-Sides and Rarities
DYEAR=2010
DGENRE=Country
TTITLE0=Wagon Wheel
TTITLE1=Pictures In My Mind
TTITLE2=Box #10
TTITLE3=Shine Like Gold
TTITLE4=Tennesse Waltz
TTITLE5=I Think It's Gonna Work Out Fine
TTITLE6=Cinzia
TTITLE7=Leave The Blues Behind
TTITLE8=Wayfaring Stranger
TTITLE9=Hey Joe
TTITLE10=Papa's Waltz
TTITLE11=The Weakness Of Your Smile
EXTD=
EXTT0=
EXTT1=
EXTT2=
EXTT3=
EXTT4=
EXTT5=
EXTT6=
EXTT7=
EXTT8=
EXTT9=
EXTT10=
EXTT11=
PLAYORDER=
